<?xml version="1.0" ?><!DOCTYPE svg  PUBLIC '-//W3C//DTD SVG 1.1//EN'  'http://www.w3.org/Graphics/SVG/1.1/DTD/svg11.dtd'><svg enable-background="new 0 0 96 96" height="96px" id="battery" version="1.1" viewBox="0 0 96 96" width="96px" xml:space="preserve" xmlns="http://www.w3.org/2000/svg" xmlns:xlink="http://www.w3.org/1999/xlink"><path d="M84,32c0-6.63-5.37-12-12-12H12C5.37,20,0,25.37,0,32v32c0,6.63,5.37,12,12,12h60c6.63,0,12-5.37,12-12  c6.63,0,12-5.37,12-12v-8C96,37.37,90.63,32,84,32z M76,64c0,2.21-1.79,4-4,4H12c-2.21,0-4-1.79-4-4V32c0-2.21,1.79-4,4-4h60  c2.21,0,4,1.79,4,4V64z M88,52c0,2.21-1.79,4-4,4V40c2.21,0,4,1.79,4,4V52z"/></svg>